<svg class="h-full w-full"  viewBox="0 0 20 20"  fill="none" xmlns="http://www.w3.org/2000/svg">
<path d="M13.6774 5.21199C13.5663 5.09693 13.4082 5.03125 13.2422 5.03125H6.76758C6.60161 5.03125 6.44344 5.09693 6.33234 5.21199C6.22122 5.32705 6.16761 5.4807 6.1848 5.63478L6.98165 12.7745C7.05961 13.4731 7.68598 14 8.43858 14H11.5712C12.3238 14 12.9502 13.4731 13.0281 12.7745C13.0617 12.4741 12.8279 12.2052 12.506 12.1739C12.184 12.1427 11.8961 12.3607 11.8625 12.6612C11.847 12.8009 11.7217 12.9062 11.5712 12.9062H8.43858C8.28806 12.9062 8.16281 12.8009 8.14723 12.6611L7.66186 8.3125H12.3479L12.1375 10.1973C12.104 10.4976 12.3378 10.7665 12.6596 10.7978C12.9814 10.8293 13.2696 10.611 13.3031 10.3106L13.825 5.63478C13.8422 5.48073 13.7885 5.32705 13.6774 5.21199ZM7.53978 7.21875L7.4177 6.125H12.592L12.4699 7.21875H7.53978ZM6.06445 13.4531C6.06445 13.7552 5.80213 14 5.47852 14H3.51562C2.22328 14 1.17188 13.0187 1.17188 11.8125V7.72598C1.17188 6.57448 1.58385 5.43599 2.33191 4.52028C2.9252 3.79397 3.25195 2.89103 3.25195 1.97772V1.09375H3.10547C2.78186 1.09375 2.51953 0.848914 2.51953 0.546875C2.51953 0.244836 2.78186 0 3.10547 0H7.76367C8.08728 0 8.34961 0.244836 8.34961 0.546875C8.34961 0.848914 8.08728 1.09375 7.76367 1.09375H7.61719V2.03369C7.61719 2.44902 7.68308 2.86103 7.81304 3.25825C7.90755 3.54711 7.73326 3.85279 7.42377 3.941C7.36676 3.95724 7.3091 3.96498 7.25244 3.96498C7.00148 3.96498 6.76934 3.81333 6.69226 3.57766C6.5284 3.07683 6.44531 2.55738 6.44531 2.03369V1.09375H4.42383V1.97772C4.42383 3.12922 4.01186 4.2677 3.26379 5.18342C2.6705 5.90972 2.34375 6.8127 2.34375 7.72598V11.8125C2.34375 12.4156 2.86945 12.9062 3.51562 12.9062H5.47852C5.80213 12.9062 6.06445 13.1511 6.06445 13.4531Z" fill="#FF1654"/>
</svg>