<svg class="h-full w-full"  viewBox="0 0 20 20"   fill="none" xmlns="http://www.w3.org/2000/svg">
<g clip-path="url(#clip0)">
<path d="M13.7759 2.64474C12.2893 1.22821 10.3127 0.448059 8.21025 0.448059C6.10783 0.448059 4.13125 1.22821 2.64458 2.64474C1.15797 4.06133 0.339233 5.94474 0.339233 7.94806V9.51178L2.87053 11.1626V14.5519H13.55V11.1626L16.0813 9.51178V7.94806C16.0813 5.94474 15.2625 4.06133 13.7759 2.64474ZM3.79292 13.673V11.7642L6.71986 13.673H3.79292ZMCall: 5.51578 11.82275.51578 11.8227C5.62785 10.4997 6.79344 9.45582 8.21025 9.45582C9.62706 9.45582 10.7927 10.4997 10.9047 11.8227LCall: 8.21025 13.57998.21025 13.5799LCall: 5.51578 11.82275.51578 11.8227ZMCall: 12.6276 13.67312.6276 13.673H9.70064L12.6276 11.7642V13.673ZMCall: 11.7477 11.272911.7477 11.2729C11.3838 9.73174 9.936 8.57692 8.21025 8.57692C6.4845 8.57692 5.03669 9.73174 4.67278 11.2729L3.2457 10.3423C3.34172 7.81186 5.53165 5.78141 8.21025 5.78141C10.8889 5.78141 13.0788 7.81186 13.1748 10.3423LCall: 11.7477 11.272911.7477 11.2729ZMCall: 15.1589 9.048315.1589 9.0483L14.0491 9.77208C13.6662 7.02723 11.1939 4.9025 8.21025 4.9025C5.22664 4.9025 2.75428 7.02723 2.3714 9.77205L1.26162 9.0483V7.94806C1.26162 6.17949 1.9844 4.51681 3.29683 3.26624C4.60926 2.01568 6.3542 1.32697 8.21025 1.32697C10.0663 1.32697 11.8112 2.01568 13.1237 3.26624C14.4361 4.51681 15.1589 6.17949 15.1589 7.94806V9.0483Z" fill="#FF1654"/>
</g>
<defs>
<clipPath id="clip0">
<rect width="15.742" height="15" fill="white" transform="translate(0.339233)"/>
</clipPath>
</defs>
</svg>
