<svg width="30" height="30" viewBox="0 0 20 20"  fill="none" xmlns="http://www.w3.org/2000/svg">
<g clip-path="url(#clip0)">
<path d="M12.9196 0C11.8184 0 10.9225 0.895887 10.9225 1.99708V3.45608L10.4464 3.93217C10.3836 3.46578 10.1737 3.0156 9.81603 2.6579L8.04181 0.883642L7.1898 1.73567C6.32201 2.60344 6.32201 4.01542 7.1898 4.88319L8.34258 6.036L7.33816 7.04043C7.27535 6.57404 7.06547 6.12386 6.70777 5.76616L4.93355 3.9919L4.08152 4.84393C3.21372 5.7117 3.21372 7.12368 4.08152 7.99145L5.2343 9.14426L4.2299 10.1487C4.16709 9.68227 3.95721 9.23209 3.59952 8.87439L1.82526 7.10013L0.973257 7.95216C0.105464 8.81996 0.105464 10.2319 0.973257 11.0997L2.12604 12.2525L0 14.3786L0.621447 15L2.74748 12.874L3.90029 14.0267C4.33419 14.4606 4.90414 14.6776 5.47405 14.6776C6.04397 14.6776 6.61394 14.4606 7.04781 14.0267L7.89984 13.1747L6.12558 11.4005C5.76791 11.0428 5.31773 10.8329 4.85134 10.7701L5.85574 9.7657L7.00855 10.9185C7.44245 11.3524 8.01236 11.5693 8.58231 11.5693C9.15225 11.5693 9.7222 11.3524 10.1561 10.9185L11.0081 10.0665L9.23384 8.29222C8.87614 7.93453 8.42599 7.72465 7.9596 7.66184L8.96403 6.65742L10.1168 7.8102C10.5508 8.24415 11.1206 8.46103 11.6906 8.46103C12.2605 8.46103 12.8305 8.24403 13.2644 7.8102L14.1164 6.95816L12.3421 5.18394C11.9845 4.82624 11.5342 4.61636 11.0679 4.55356L11.5439 4.07747H13.003C14.1041 4.07747 15 3.18159 15 2.08039V0L12.9196 0ZM8.964 5.41452L7.81119 4.26174C7.2861 3.73665 7.2861 2.88221 7.81119 2.35712L8.04175 2.12654L9.19456 3.27932C9.71965 3.80444 9.71965 4.65884 9.19456 5.18397L8.964 5.41452ZM5.85574 8.52281L4.70293 7.37C4.17784 6.84491 4.17784 5.99047 4.70293 5.46538L4.93352 5.23479L6.08633 6.3876C6.61142 6.9127 6.61142 7.76713 6.08633 8.29222L5.85574 8.52281ZM2.74748 11.6311L1.59467 10.4783C1.06958 9.95317 1.06958 9.09876 1.59467 8.57364L1.82526 8.34308L2.97807 9.49586C3.50316 10.021 3.50316 10.8754 2.97807 11.4005L2.74748 11.6311ZM5.50414 12.0219L6.65692 13.1747L6.42636 13.4053C5.90124 13.9304 5.04683 13.9304 4.52171 13.4053L3.36893 12.2525L3.59952 12.0219C4.12464 11.4968 4.97901 11.4969 5.50414 12.0219ZM8.6124 8.91367L9.76521 10.0665L9.53462 10.2971C9.0095 10.8222 8.15509 10.8222 7.63 10.2971L6.47719 9.14426L6.70777 8.91367C7.2329 8.38858 8.08727 8.38861 8.6124 8.91367ZM11.7207 5.80541L12.8734 6.95822L12.6428 7.18881C12.1177 7.7139 11.2633 7.71387 10.7382 7.18881L9.58545 6.036L9.816 5.80541C10.3412 5.28032 11.1956 5.28032 11.7207 5.80541ZM14.1211 2.08042C14.1211 2.69701 13.6195 3.19864 13.0029 3.19864H11.8013V1.99708C11.8013 1.38049 12.303 0.878867 12.9195 0.878867H14.1211V2.08042H14.1211Z" fill="#FF1654"/>
</g>
<defs>
<clipPath id="clip0">
<rect width="30" height="30" fill="white"/>
</clipPath>
</defs>
</svg>
