<svg width="45" height="44" viewBox="0 0 45 44" fill="none" xmlns="http://www.w3.org/2000/svg">
<path d="M22.5 13.1702C13.8141 13.1702 6.74756 19.8228 6.74756 28C6.74756 36.1772 13.8141 42.8298 22.5 42.8298C31.1859 42.8298 38.2525 36.1771 38.2525 28C38.2525 19.8228 31.1859 13.1702 22.5 13.1702ZM22.5 41.5886C14.5411 41.5886 8.06592 35.4928 8.06592 28C8.06592 20.5071 14.5411 14.4113 22.5 14.4113C30.459 14.4113 36.9341 20.5072 36.9341 28C36.9341 35.4927 30.459 41.5886 22.5 41.5886Z" fill="#FF1654"/>
<path d="M41.0558 12C38.881 12 37.1116 13.6657 37.1116 15.7132V18.2207C37.1116 20.0566 38.5347 21.5847 40.3966 21.881V32.8959H40.1679C39.3149 32.8959 38.6209 33.5493 38.6209 34.3524V42.5436C38.6209 43.3467 39.3149 44 40.1679 44H41.9436C42.7967 44 43.4906 43.3467 43.4906 42.5436V38.4634C43.4906 38.1207 43.1955 37.8429 42.8315 37.8429C42.4674 37.8429 42.1723 38.1207 42.1723 38.4634V42.5436C42.1723 42.6623 42.0697 42.7589 41.9436 42.7589H40.1679C40.0418 42.7589 39.9393 42.6623 39.9393 42.5436V34.3524C39.9393 34.2336 40.0418 34.1371 40.1679 34.1371H41.9436C42.0697 34.1371 42.1723 34.2336 42.1723 34.3524V35.565C42.1723 35.9078 42.4674 36.1856 42.8315 36.1856C43.1955 36.1856 43.4906 35.9078 43.4906 35.565V34.3524C43.4906 33.5493 42.7967 32.8959 41.9436 32.8959H41.7149V21.881C43.577 21.5847 45 20.0566 45 18.2207V15.7132C45 13.6657 43.2307 12 41.0558 12ZM43.6816 18.2207C43.6816 19.5838 42.5037 20.6927 41.0558 20.6927C39.6079 20.6927 38.43 19.5838 38.43 18.2207V15.7132C38.43 14.3501 39.6079 13.2411 41.0558 13.2411C42.5037 13.2411 43.6816 14.3501 43.6816 15.7132V18.2207Z" fill="#FF1654"/>
<path d="M7.88836 18.2207V12.6206C7.88836 12.2778 7.59322 12 7.22918 12C6.86514 12 6.57 12.2778 6.57 12.6206V17.6001H4.60336V12.6206C4.60336 12.2778 4.30822 12 3.94418 12C3.58014 12 3.285 12.2778 3.285 12.6206V17.6001H1.31836V12.6206C1.31836 12.2778 1.02322 12 0.65918 12C0.295137 12 0 12.2778 0 12.6206V18.2207C0 20.0566 1.42304 21.5847 3.285 21.881V32.8959H3.05631C2.20324 32.8959 1.50926 33.5493 1.50926 34.3524V35.565C1.50926 35.9078 1.80439 36.1856 2.16844 36.1856C2.53248 36.1856 2.82762 35.9078 2.82762 35.565V34.3524C2.82762 34.2336 2.93019 34.1371 3.05631 34.1371H4.83196C4.95809 34.1371 5.06065 34.2336 5.06065 34.3524V42.5436C5.06065 42.6623 4.95809 42.7589 4.83196 42.7589H3.05631C2.93019 42.7589 2.82762 42.6623 2.82762 42.5436V38.4634C2.82762 38.1207 2.53248 37.8429 2.16844 37.8429C1.80439 37.8429 1.50926 38.1207 1.50926 38.4634V42.5436C1.50926 43.3467 2.20324 44 3.05631 44H4.83196C5.68503 44 6.37901 43.3467 6.37901 42.5436V34.3524C6.37901 33.5493 5.68503 32.8959 4.83196 32.8959H4.60327V21.881C6.46532 21.5847 7.88836 20.0566 7.88836 18.2207ZM1.40221 18.8413H6.48606C6.19286 19.9049 5.16445 20.6927 3.94409 20.6927C2.72373 20.6927 1.69541 19.9049 1.40221 18.8413Z" fill="#FF1654"/>
<path d="M10.022 30.035C9.82199 30.0352 9.65022 29.9638 9.50669 29.8206C9.36316 29.6775 9.29125 29.5076 9.29098 29.3109L9.28991 28.5509C9.28984 28.4942 9.29809 28.4376 9.31468 28.3809C9.33126 28.3208 9.35118 28.2642 9.37444 28.2108C9.35103 28.1575 9.33095 28.1025 9.31421 28.0459C9.29746 27.9859 9.28904 27.9259 9.28896 27.8659L9.28797 27.1609C9.28769 26.9609 9.35912 26.7908 9.50226 26.6506C9.64539 26.5071 9.81696 26.4352 10.017 26.435L12.092 26.4324C12.272 26.4322 12.4304 26.4887 12.5672 26.6018C12.7074 26.715 12.7925 26.8566 12.8228 27.0265L12.824 27.8615C12.824 27.9149 12.8158 27.9732 12.7992 28.0365C12.7859 28.0966 12.766 28.1533 12.7394 28.2066C12.7695 28.2599 12.7913 28.3149 12.8047 28.3715C12.8181 28.4282 12.8248 28.4865 12.8249 28.5465L12.826 29.3065C12.8262 29.5032 12.7548 29.6733 12.6117 29.8168C12.4686 29.9603 12.297 30.0322 12.097 30.0324L10.022 30.035ZM10.2209 29.2697L11.8959 29.2677C12.0059 29.2675 12.0609 29.2675 12.0609 29.2675C12.0609 29.2675 12.0608 29.2125 12.0607 29.1025L12.0602 28.7575C12.0601 28.6475 12.06 28.5925 12.06 28.5925C12.06 28.5925 12.005 28.5925 11.895 28.5927L10.22 28.5947C10.11 28.5949 10.055 28.595 10.055 28.595C10.055 28.595 10.0551 28.6499 10.0552 28.7599L10.0557 29.1049C10.0558 29.2149 10.0559 29.2699 10.0559 29.2699C10.0559 29.2699 10.1109 29.2699 10.2209 29.2697ZM10.219 27.8747L11.894 27.8727C12.004 27.8725 12.059 27.8725 12.059 27.8725C12.059 27.8725 12.0589 27.8175 12.0587 27.7075L12.0583 27.3675C12.0581 27.2575 12.058 27.2025 12.058 27.2025C12.058 27.2025 12.003 27.2025 11.893 27.2027L10.218 27.2047C10.108 27.2049 10.053 27.205 10.053 27.205C10.053 27.205 10.0531 27.26 10.0533 27.37L10.0537 27.71C10.0539 27.82 10.054 27.875 10.054 27.875C10.054 27.875 10.109 27.8749 10.219 27.8747ZM14.1919 30.0298C13.9919 30.0301 13.8201 29.9586 13.6766 29.8155C13.5331 29.6723 13.4612 29.5024 13.4609 29.3057L13.4579 27.1557C13.4576 26.9557 13.529 26.7856 13.6722 26.6455C13.8153 26.502 13.9869 26.4301 14.1869 26.4298L16.4469 26.427L16.4479 27.192L14.3879 27.1946C14.2779 27.1947 14.2229 27.1948 14.2229 27.1948C14.2229 27.1948 14.223 27.2498 14.2232 27.3598L14.2236 27.6548C14.2237 27.7648 14.2238 27.8198 14.2238 27.8198C14.2238 27.8198 14.2788 27.8197 14.3888 27.8196L16.2638 27.8173C16.4638 27.817 16.6356 27.8885 16.7791 28.0316C16.9226 28.1714 16.9946 28.3414 16.9948 28.5414L16.9959 29.3013C16.9962 29.498 16.9247 29.6681 16.7816 29.8116C16.6385 29.9551 16.4669 30.027 16.2669 30.0273L14.1919 30.0298ZM14.3908 29.2646L16.0658 29.2625C16.1758 29.2624 16.2308 29.2623 16.2308 29.2623C16.2308 29.2623 16.2308 29.2073 16.2306 29.0973L16.2301 28.7523C16.23 28.6423 16.2299 28.5873 16.2299 28.5873C16.2299 28.5873 16.1749 28.5874 16.0649 28.5875L14.2249 28.5898L14.2256 29.0998C14.2258 29.2098 14.2258 29.2648 14.2258 29.2648C14.2258 29.2648 14.2808 29.2647 14.3908 29.2646ZM17.5485 30.0257L17.5444 27.1257L21.0344 27.1213C21.2344 27.1211 21.4045 27.1926 21.5447 27.3357C21.6882 27.4789 21.7601 27.6488 21.7604 27.8454L21.7635 30.0204L21.0035 30.0214L21.0007 28.0514C21.0006 27.9414 21.0005 27.8864 21.0005 27.8864C21.0005 27.8864 20.9455 27.8865 20.8355 27.8866L20.2055 27.8874C20.0955 27.8875 20.0405 27.8876 20.0405 27.8876C20.0405 27.8876 20.0406 27.9426 20.0407 28.0526L20.0435 30.0226L19.2735 30.0235L19.2707 28.0535C19.2706 27.9435 19.2705 27.8885 19.2705 27.8885C19.2705 27.8885 19.2155 27.8886 19.1055 27.8887L18.4755 27.8895C18.3655 27.8897 18.3105 27.8897 18.3105 27.8897C18.3105 27.8897 18.3106 27.9447 18.3107 28.0547L18.3135 30.0247L17.5485 30.0257ZM22.946 30.019C22.7493 30.0192 22.5792 29.9478 22.4357 29.8046C22.2921 29.6615 22.2202 29.4915 22.22 29.2949L22.2179 27.8449C22.2176 27.6482 22.2891 27.4781 22.4322 27.3346C22.5753 27.1911 22.7452 27.1192 22.9419 27.119L24.4319 27.1171C24.6319 27.1169 24.802 27.1883 24.9422 27.3315C25.0857 27.4747 25.1576 27.6446 25.1579 27.8412L25.1595 28.9512L22.9845 28.9539L22.9847 29.0889C22.9848 29.1989 22.9849 29.2539 22.9849 29.2539C22.9849 29.2539 23.0399 29.2539 23.1499 29.2537L25.1599 29.2512L25.161 30.0162L22.946 30.019ZM22.9835 28.2839L24.3935 28.2822L24.3932 28.0472C24.3931 27.9372 24.393 27.8822 24.393 27.8822C24.393 27.8822 24.338 27.8823 24.228 27.8824L23.148 27.8837C23.038 27.8839 22.983 27.8839 22.983 27.8839C22.983 27.8839 22.9831 27.9389 22.9832 28.0489L22.9835 28.2839ZM25.6979 30.0156L25.6938 27.1156L27.9088 27.1128C28.1088 27.1126 28.2789 27.184 28.4191 27.3272C28.5627 27.4703 28.6346 27.6403 28.6348 27.8369L28.6379 30.0119L27.8729 30.0129L27.8701 28.0429C27.87 27.9329 27.8699 27.8779 27.8699 27.8779C27.8699 27.8779 27.8149 27.8779 27.7049 27.8781L26.6249 27.8794C26.5149 27.8796 26.4599 27.8796 26.4599 27.8796C26.4599 27.8796 26.46 27.9346 26.4601 28.0446L26.4629 30.0146L25.6979 30.0156ZM29.8993 30.0104C29.6993 30.0106 29.5276 29.9392 29.384 29.796C29.2438 29.6528 29.1736 29.4829 29.1733 29.2863L29.1703 27.1113L29.9353 27.1103L29.938 29.0803C29.9382 29.1903 29.9382 29.2453 29.9382 29.2453C29.9382 29.2453 29.9932 29.2452 30.1032 29.2451L31.1832 29.2438C31.2932 29.2436 31.3482 29.2436 31.3482 29.2436C31.3482 29.2436 31.3482 29.1886 31.348 29.0786L31.3453 27.1086L32.1103 27.1076L32.1133 29.2826C32.1136 29.4793 32.0421 29.6494 31.899 29.7929C31.7592 29.9364 31.5893 30.0083 31.3893 30.0085L29.8993 30.0104ZM33.2337 30.0062C33.037 30.0065 32.8669 29.935 32.7234 29.7919C32.5799 29.6487 32.508 29.4788 32.5077 29.2821L32.5075 29.1371L33.2725 29.1362L33.2725 29.1612C33.2726 29.2145 33.2726 29.2412 33.2726 29.2412C33.2726 29.2412 33.2993 29.2411 33.3526 29.2411L34.6026 29.2395C34.656 29.2395 34.6826 29.2394 34.6826 29.2394C34.6826 29.2394 34.6826 29.2128 34.6825 29.1594L34.6823 29.0194C34.6822 28.9661 34.6822 28.9394 34.6822 28.9394C34.6822 28.9394 34.6555 28.9395 34.6022 28.9395L33.2322 28.9412C33.0355 28.9415 32.8654 28.87 32.7219 28.7269C32.5784 28.5837 32.5065 28.4138 32.5062 28.2171L32.5057 27.8321C32.5054 27.6355 32.5768 27.4654 32.7199 27.3219C32.8631 27.1784 33.033 27.1065 33.2296 27.1062L34.7196 27.1044C34.9196 27.1041 35.0914 27.1756 35.2349 27.3187C35.3785 27.4619 35.4504 27.6318 35.4506 27.8285L35.4509 27.9735L34.6809 27.9744L34.6808 27.9494C34.6807 27.8961 34.6807 27.8694 34.6807 27.8694C34.6807 27.8694 34.654 27.8695 34.6007 27.8695L33.3507 27.8711C33.2974 27.8711 33.2707 27.8712 33.2707 27.8712C33.2707 27.8712 33.2707 27.8978 33.2708 27.9512L33.271 28.0912C33.2711 28.1445 33.2711 28.1712 33.2711 28.1712C33.2711 28.1712 33.2978 28.1711 33.3511 28.1711L34.7211 28.1694C34.9211 28.1691 35.0929 28.2406 35.2364 28.3837C35.38 28.5269 35.4519 28.6968 35.4521 28.8935L35.4527 29.2785C35.453 29.4751 35.3815 29.6452 35.2384 29.7887C35.0953 29.9323 34.9237 30.0041 34.7237 30.0044L33.2337 30.0062Z" fill="#FF1654"/>
<path d="M6.22 2.82C6.516 2.82 6.784 2.888 7.024 3.024C7.264 3.156 7.452 3.344 7.588 3.588C7.724 3.832 7.792 4.11 7.792 4.422C7.792 4.738 7.724 5.018 7.588 5.262C7.452 5.506 7.264 5.696 7.024 5.832C6.788 5.964 6.52 6.03 6.22 6.03C5.964 6.03 5.732 5.978 5.524 5.874C5.32 5.766 5.152 5.61 5.02 5.406V7.164H4.594V2.844H5.002V3.468C5.13 3.26 5.298 3.1 5.506 2.988C5.718 2.876 5.956 2.82 6.22 2.82ZM6.19 5.652C6.41 5.652 6.61 5.602 6.79 5.502C6.97 5.398 7.11 5.252 7.21 5.064C7.314 4.876 7.366 4.662 7.366 4.422C7.366 4.182 7.314 3.97 7.21 3.786C7.11 3.598 6.97 3.452 6.79 3.348C6.61 3.244 6.41 3.192 6.19 3.192C5.966 3.192 5.764 3.244 5.584 3.348C5.408 3.452 5.268 3.598 5.164 3.786C5.064 3.97 5.014 4.182 5.014 4.422C5.014 4.662 5.064 4.876 5.164 5.064C5.268 5.252 5.408 5.398 5.584 5.502C5.764 5.602 5.966 5.652 6.19 5.652ZM9.95041 6.03C9.64641 6.03 9.37241 5.962 9.12841 5.826C8.88441 5.686 8.69241 5.494 8.55241 5.25C8.41241 5.006 8.34241 4.73 8.34241 4.422C8.34241 4.114 8.41241 3.838 8.55241 3.594C8.69241 3.35 8.88441 3.16 9.12841 3.024C9.37241 2.888 9.64641 2.82 9.95041 2.82C10.2544 2.82 10.5284 2.888 10.7724 3.024C11.0164 3.16 11.2064 3.35 11.3424 3.594C11.4824 3.838 11.5524 4.114 11.5524 4.422C11.5524 4.73 11.4824 5.006 11.3424 5.25C11.2064 5.494 11.0164 5.686 10.7724 5.826C10.5284 5.962 10.2544 6.03 9.95041 6.03ZM9.95041 5.652C10.1744 5.652 10.3744 5.602 10.5504 5.502C10.7304 5.398 10.8704 5.252 10.9704 5.064C11.0704 4.876 11.1204 4.662 11.1204 4.422C11.1204 4.182 11.0704 3.968 10.9704 3.78C10.8704 3.592 10.7304 3.448 10.5504 3.348C10.3744 3.244 10.1744 3.192 9.95041 3.192C9.72641 3.192 9.52441 3.244 9.34441 3.348C9.16841 3.448 9.02841 3.592 8.92441 3.78C8.82441 3.968 8.77441 4.182 8.77441 4.422C8.77441 4.662 8.82441 4.876 8.92441 5.064C9.02841 5.252 9.16841 5.398 9.34441 5.502C9.52441 5.602 9.72641 5.652 9.95041 5.652ZM16.9662 2.844L15.7722 6H15.3702L14.3742 3.414L13.3782 6H12.9762L11.7882 2.844H12.1962L13.1862 5.526L14.2002 2.844H14.5662L15.5742 5.526L16.5762 2.844H16.9662ZM20.2678 4.554H17.6278C17.6518 4.882 17.7778 5.148 18.0058 5.352C18.2338 5.552 18.5218 5.652 18.8698 5.652C19.0658 5.652 19.2458 5.618 19.4098 5.55C19.5738 5.478 19.7158 5.374 19.8358 5.238L20.0758 5.514C19.9358 5.682 19.7598 5.81 19.5478 5.898C19.3398 5.986 19.1098 6.03 18.8578 6.03C18.5338 6.03 18.2458 5.962 17.9938 5.826C17.7458 5.686 17.5518 5.494 17.4118 5.25C17.2718 5.006 17.2018 4.73 17.2018 4.422C17.2018 4.114 17.2678 3.838 17.3998 3.594C17.5358 3.35 17.7198 3.16 17.9518 3.024C18.1878 2.888 18.4518 2.82 18.7438 2.82C19.0358 2.82 19.2978 2.888 19.5298 3.024C19.7618 3.16 19.9438 3.35 20.0758 3.594C20.2078 3.834 20.2738 4.11 20.2738 4.422L20.2678 4.554ZM18.7438 3.186C18.4398 3.186 18.1838 3.284 17.9758 3.48C17.7718 3.672 17.6558 3.924 17.6278 4.236H19.8658C19.8378 3.924 19.7198 3.672 19.5118 3.48C19.3078 3.284 19.0518 3.186 18.7438 3.186ZM21.5489 3.462C21.6489 3.25 21.7969 3.09 21.9929 2.982C22.1929 2.874 22.4389 2.82 22.7309 2.82V3.234L22.6289 3.228C22.2969 3.228 22.0369 3.33 21.8489 3.534C21.6609 3.738 21.5669 4.024 21.5669 4.392V6H21.1409V2.844H21.5489V3.462ZM26.2209 4.554H23.5809C23.6049 4.882 23.7309 5.148 23.9589 5.352C24.1869 5.552 24.4749 5.652 24.8229 5.652C25.0189 5.652 25.1989 5.618 25.3629 5.55C25.5269 5.478 25.6689 5.374 25.7889 5.238L26.0289 5.514C25.8889 5.682 25.7129 5.81 25.5009 5.898C25.2929 5.986 25.0629 6.03 24.8109 6.03C24.4869 6.03 24.1989 5.962 23.9469 5.826C23.6989 5.686 23.5049 5.494 23.3649 5.25C23.2249 5.006 23.1549 4.73 23.1549 4.422C23.1549 4.114 23.2209 3.838 23.3529 3.594C23.4889 3.35 23.6729 3.16 23.9049 3.024C24.1409 2.888 24.4049 2.82 24.6969 2.82C24.9889 2.82 25.2509 2.888 25.4829 3.024C25.7149 3.16 25.8969 3.35 26.0289 3.594C26.1609 3.834 26.2269 4.11 26.2269 4.422L26.2209 4.554ZM24.6969 3.186C24.3929 3.186 24.1369 3.284 23.9289 3.48C23.7249 3.672 23.6089 3.924 23.5809 4.236H25.8189C25.7909 3.924 25.6729 3.672 25.4649 3.48C25.2609 3.284 25.0049 3.186 24.6969 3.186ZM29.974 1.548V6H29.566V5.376C29.438 5.588 29.268 5.75 29.056 5.862C28.848 5.974 28.612 6.03 28.348 6.03C28.052 6.03 27.784 5.962 27.544 5.826C27.304 5.69 27.116 5.5 26.98 5.256C26.844 5.012 26.776 4.734 26.776 4.422C26.776 4.11 26.844 3.832 26.98 3.588C27.116 3.344 27.304 3.156 27.544 3.024C27.784 2.888 28.052 2.82 28.348 2.82C28.604 2.82 28.834 2.874 29.038 2.982C29.246 3.086 29.416 3.24 29.548 3.444V1.548H29.974ZM28.384 5.652C28.604 5.652 28.802 5.602 28.978 5.502C29.158 5.398 29.298 5.252 29.398 5.064C29.502 4.876 29.554 4.662 29.554 4.422C29.554 4.182 29.502 3.968 29.398 3.78C29.298 3.592 29.158 3.448 28.978 3.348C28.802 3.244 28.604 3.192 28.384 3.192C28.16 3.192 27.958 3.244 27.778 3.348C27.602 3.448 27.462 3.592 27.358 3.78C27.258 3.968 27.208 4.182 27.208 4.422C27.208 4.662 27.258 4.876 27.358 5.064C27.462 5.252 27.602 5.398 27.778 5.502C27.958 5.602 28.16 5.652 28.384 5.652ZM34.3567 2.82C34.6527 2.82 34.9207 2.888 35.1607 3.024C35.4007 3.156 35.5887 3.344 35.7247 3.588C35.8607 3.832 35.9287 4.11 35.9287 4.422C35.9287 4.734 35.8607 5.012 35.7247 5.256C35.5887 5.5 35.4007 5.69 35.1607 5.826C34.9207 5.962 34.6527 6.03 34.3567 6.03C34.0927 6.03 33.8547 5.974 33.6427 5.862C33.4347 5.75 33.2667 5.588 33.1387 5.376V6H32.7307V1.548H33.1567V3.444C33.2887 3.24 33.4567 3.086 33.6607 2.982C33.8687 2.874 34.1007 2.82 34.3567 2.82ZM34.3267 5.652C34.5467 5.652 34.7467 5.602 34.9267 5.502C35.1067 5.398 35.2467 5.252 35.3467 5.064C35.4507 4.876 35.5027 4.662 35.5027 4.422C35.5027 4.182 35.4507 3.968 35.3467 3.78C35.2467 3.592 35.1067 3.448 34.9267 3.348C34.7467 3.244 34.5467 3.192 34.3267 3.192C34.1027 3.192 33.9007 3.244 33.7207 3.348C33.5447 3.448 33.4047 3.592 33.3007 3.78C33.2007 3.968 33.1507 4.182 33.1507 4.422C33.1507 4.662 33.2007 4.876 33.3007 5.064C33.4047 5.252 33.5447 5.398 33.7207 5.502C33.9007 5.602 34.1027 5.652 34.3267 5.652ZM39.3612 2.844L37.7832 6.378C37.6552 6.674 37.5072 6.884 37.3392 7.008C37.1712 7.132 36.9692 7.194 36.7332 7.194C36.5812 7.194 36.4392 7.17 36.3072 7.122C36.1752 7.074 36.0612 7.002 35.9652 6.906L36.1632 6.588C36.3232 6.748 36.5152 6.828 36.7392 6.828C36.8832 6.828 37.0052 6.788 37.1052 6.708C37.2092 6.628 37.3052 6.492 37.3932 6.3L37.5312 5.994L36.1212 2.844H36.5652L37.7532 5.526L38.9412 2.844H39.3612Z" fill="#2D3142"/>
</svg>
