<svg width="30" height="30" viewBox="0 0 20 20"   fill="none" xmlns="http://www.w3.org/2000/svg">
<g clip-path="url(#clip0)">
<path d="M15.6152 1.86539C15.3693 1.6311 15.0642 1.46584 14.7323 1.3834C14.6459 1.06714 14.4724 0.776484 14.2265 0.542168C13.8596 0.192539 13.3717 0 12.8528 0C12.3339 0 11.8461 0.192539 11.4792 0.542168C11.1122 0.891797 10.9101 1.35665 10.9101 1.85109C10.9101 2.21121 11.0173 2.55562 11.2172 2.85117L9.2272 4.74741C8.89867 4.67309 8.54657 4.65205 8.18075 4.68762C7.34867 4.76854 6.53614 5.13592 5.87949 5.72569C4.56026 5.81206 3.2296 6.41288 2.2024 7.39169C1.21422 8.33326 0.598277 9.5221 0.467944 10.7392C0.334014 11.99 0.725105 13.1217 1.56921 13.926C2.30469 14.6269 3.30102 15 4.41363 15C4.57791 15 4.74477 14.9919 4.91366 14.9754C6.19098 14.8513 7.43863 14.2643 8.42678 13.3228C9.45407 12.3439 10.0846 11.0761 10.1752 9.81896C10.7942 9.19312 11.1797 8.41896 11.2646 7.62621C11.3019 7.27755 11.2799 6.94204 11.2019 6.62903L13.1923 4.7325C13.944 5.19231 14.9582 5.10923 15.6151 4.48327C16.3726 3.76151 16.3726 2.58715 15.6152 1.86539ZM10.347 7.53697C10.2795 8.16744 9.9544 8.78903 9.43138 9.2874C9.42815 9.29048 9.4248 9.29341 9.42151 9.2964C9.41462 9.30255 9.40783 9.30876 9.40104 9.31506L9.26806 9.43893L9.26243 9.61605C9.22781 10.7088 8.68551 11.8333 7.77459 12.7013C6.79468 13.635 5.5557 14.1216 4.42135 14.1216C3.5813 14.1215 2.79851 13.8546 2.22137 13.3046C0.864908 12.0121 1.14897 9.63841 2.85456 8.01322C3.76547 7.14524 4.94564 6.62851 6.09241 6.59552L6.27882 6.59016L6.40891 6.46283C6.41518 6.45668 6.42136 6.4505 6.42751 6.44429C6.43071 6.44104 6.4339 6.43772 6.43747 6.43433C7.04812 5.85246 7.8181 5.54833 8.51847 5.54833C9.02685 5.54833 9.49865 5.7087 9.84587 6.03952C10.233 6.40828 10.411 6.94011 10.347 7.53697ZM14.963 3.8618C14.5651 4.24087 13.9178 4.24084 13.5203 3.862C13.5146 3.85664 13.5093 3.8511 13.5039 3.84563L13.1715 3.50933L10.8027 5.76653C10.7131 5.64267 10.6116 5.52609 10.4982 5.41802C10.3847 5.30991 10.2624 5.21317 10.1324 5.12783L12.5019 2.86998L12.1496 2.55513C12.1436 2.54971 12.1375 2.54437 12.1313 2.53854C11.9386 2.35494 11.8325 2.11078 11.8325 1.85109C11.8325 1.59141 11.9386 1.34728 12.1313 1.16361C12.324 0.97998 12.5803 0.878877 12.8528 0.878877C13.1253 0.878877 13.3815 0.98001 13.5742 1.16361C13.7505 1.3316 13.8559 1.55476 13.8709 1.79203L13.8955 2.18074L14.3035 2.20421C14.5524 2.21854 14.7867 2.31891 14.963 2.48687C15.3608 2.86594 15.3608 3.48272 14.963 3.8618Z" fill="#FF1654"/>
</g>
<defs>
<clipPath id="clip0">
<rect width="15.7421" height="25" fill="white" transform="translate(0.441696)"/>
</clipPath>
</defs>
</svg>
