<svg width="30" height="30" viewBox="0 0 20 20"  fill="none" xmlns="http://www.w3.org/2000/svg">
<g clip-path="url(#clip0)">
<path d="M16.1506 2.49043L15.8645 0.30363L13.5695 0.0309897C12.2702 -0.123348 10.9924 0.292526 10.0637 1.172C9.26453 1.92889 8.82402 2.9339 8.81473 3.98875C7.71253 3.99777 6.66109 4.41432 5.86811 5.16996C5.07506 5.92562 4.63788 6.92738 4.6285 7.97771C3.52156 7.98662 2.46665 8.40636 1.67234 9.16782C0.74936 10.0527 0.312913 11.2703 0.474916 12.5084L0.761074 14.6952L3.05603 14.9678C3.23423 14.989 3.41189 14.9994 3.58844 14.9994C4.69918 14.9994 5.76056 14.5857 6.56184 13.8268C7.36101 13.0699 7.80154 12.0649 7.81083 11.01C8.91303 11.001 9.96447 10.5845 10.7575 9.82883C11.5505 9.07316 11.9877 8.07143 11.9971 7.0211C13.104 7.01219 14.1589 6.59245 14.9532 5.83099C15.8762 4.94612 16.3126 3.72853 16.1506 2.49043ZM14.299 5.21138C13.577 5.90353 12.5799 6.23467 11.5636 6.11986L10.9824 6.05423L11.0513 6.60798C11.1713 7.57268 10.8265 8.52012 10.1052 9.20735C9.38401 9.89457 8.38975 10.2231 7.37721 10.1089L6.79607 10.0432L6.86494 10.597C6.98538 11.5655 6.63788 12.5155 5.91152 13.2034C5.18538 13.8912 4.18609 14.2164 3.1701 14.0956L1.58751 13.9076L1.39018 12.3997C1.2635 11.4315 1.60476 10.4794 2.32654 9.78746C3.04849 9.09531 4.04548 8.76417 5.06199 8.87898L5.64313 8.94461L5.57426 8.39086C5.45426 7.42613 5.79908 6.47869 6.52033 5.79147C7.24159 5.10424 8.23605 4.7757 9.24829 4.88996L9.82943 4.95559L9.76056 4.40184C9.64009 3.4333 9.98762 2.48331 10.714 1.79539C11.4402 1.1076 12.4394 0.782639 13.4554 0.903168L15.038 1.09117L15.2353 2.59915C15.362 3.56734 15.0207 4.51947 14.299 5.21138Z" fill="#FF1654"/>
<path d="M7.20506 6.44449C6.59428 7.02647 6.59428 7.97344 7.20506 8.55543C7.51047 8.84643 7.91159 8.99192 8.31274 8.99192C8.71389 8.99192 9.11504 8.84641 9.42042 8.55543C10.0312 7.97344 10.0312 7.02647 9.42042 6.44449C8.80964 5.8625 7.81584 5.8625 7.20506 6.44449ZM8.76822 7.93395C8.51708 8.17328 8.10846 8.17325 7.85729 7.93395C7.60615 7.69465 7.60615 7.30526 7.85729 7.06596C7.98286 6.94631 8.14782 6.88649 8.31274 6.88649C8.47766 6.88649 8.64262 6.94631 8.76819 7.06596C9.01936 7.30526 9.01936 7.69465 8.76822 7.93395Z" fill="#FF1654"/>
<path d="M3.01874 10.4335C2.40796 11.0155 2.40796 11.9625 3.01874 12.5445C3.32414 12.8355 3.72526 12.981 4.12641 12.981C4.52756 12.981 4.92871 12.8354 5.23412 12.5445C5.8449 11.9625 5.8449 11.0155 5.23412 10.4335C4.62337 9.85152 3.62955 9.85149 3.01874 10.4335ZM4.58192 11.923C4.33079 12.1623 3.92216 12.1623 3.671 11.923C3.41986 11.6837 3.41986 11.2943 3.671 11.055C3.79656 10.9353 3.96152 10.8755 4.12644 10.8755C4.2914 10.8755 4.45632 10.9353 4.58192 11.055C4.83306 11.2943 4.83306 11.6837 4.58192 11.923Z" fill="#FF1654"/>
<path d="M11.3914 2.45553C10.7806 3.03752 10.7806 3.9845 11.3914 4.56649C11.6968 4.8575 12.0979 5.00299 12.499 5.00299C12.9002 5.00299 13.3013 4.85747 13.6067 4.56649C14.2175 3.9845 14.2175 3.03752 13.6067 2.45553C12.9959 1.87355 12.0022 1.87355 11.3914 2.45553ZM12.9545 3.94501C12.7034 4.1843 12.2947 4.1843 12.0436 3.94501C11.7924 3.70571 11.7924 3.31632 12.0436 3.07702C12.1691 2.95737 12.3341 2.89754 12.499 2.89754C12.6639 2.89754 12.8289 2.95737 12.9545 3.07702C13.2056 3.31632 13.2056 3.70571 12.9545 3.94501Z" fill="#FF1654"/>
</g>
<defs>
<clipPath id="clip0">
<rect width="15.7421" height="15" fill="white" transform="translate(0.441696)"/>
</clipPath>
</defs>
</svg>
